<svg width="1000" height="1000" viewBox="0 0 1000 1000" fill="none" xmlns="http://www.w3.org/2000/svg">
<rect x="3.5" y="3.5" width="993" height="993" rx="496.5" fill="#FBF3EB" stroke="#6A6355" stroke-width="7"/>
<path d="M143.219 598.777C142.034 597.592 141.441 594.778 141.441 590.335C141.441 585.892 142.034 583.67 143.219 583.67C145.589 583.67 148.699 583.077 152.55 581.893C156.401 580.708 160.104 579.227 163.658 577.449C167.213 575.672 169.138 574.043 169.435 572.562C171.508 564.267 172.545 553.011 172.545 538.792V473.919C172.545 457.33 169.879 446.222 164.547 440.594C162.177 437.632 158.919 435.558 154.771 434.373C150.921 433.188 147.514 432.448 144.552 432.151C141.59 431.559 140.108 430.966 140.108 430.374C140.108 421.784 140.849 417.488 142.33 417.488C144.996 417.488 149.884 416.896 156.993 415.711C164.103 414.526 171.952 413.045 180.543 411.268C189.43 409.49 197.724 407.713 205.426 405.936C213.424 404.158 219.496 402.677 223.644 401.492L228.531 400.159C230.012 400.159 231.493 401.196 232.975 403.27C234.456 405.047 235.196 406.528 235.196 407.713C233.715 420.747 232.53 430.966 231.642 438.372C230.753 445.778 230.309 450.369 230.309 452.146V532.127C230.309 549.012 231.493 562.49 233.863 572.562C234.456 573.746 236.381 575.228 239.64 577.005C243.194 578.782 246.897 580.411 250.748 581.893C254.599 583.077 257.265 583.67 258.746 583.67C259.635 583.67 260.079 585.892 260.079 590.335C260.375 594.778 260.227 597.592 259.635 598.777C257.265 598.481 252.229 598.037 244.527 597.444C237.122 597.148 229.272 596.704 220.978 596.111C212.683 595.519 206.166 595.223 201.427 595.223C196.687 595.223 190.17 595.519 181.876 596.111C173.582 596.704 165.732 597.148 158.326 597.444C150.921 598.037 145.885 598.481 143.219 598.777ZM199.205 356.17C190.022 356.17 182.172 353.06 175.655 346.839C169.435 340.322 166.324 332.472 166.324 323.289C166.324 314.106 169.435 306.404 175.655 300.184C182.172 293.667 190.022 290.408 199.205 290.408C208.388 290.408 216.09 293.667 222.311 300.184C228.827 306.404 232.086 314.106 232.086 323.289C232.086 332.472 228.827 340.322 222.311 346.839C216.09 353.06 208.388 356.17 199.205 356.17ZM288.072 598.777C286.887 597.592 286.295 594.482 286.295 589.446C286.295 584.707 286.887 582.337 288.072 582.337C290.442 582.337 293.849 581.744 298.292 580.56C302.735 579.078 306.882 577.449 310.733 575.672C314.584 573.895 316.658 572.413 316.954 571.229C319.028 562.934 320.064 551.678 320.064 537.459V476.585C320.064 459.996 317.398 448.888 312.066 443.26C309.697 440.298 306.438 438.224 302.291 437.039C298.44 435.854 295.034 435.114 292.071 434.817C289.109 434.225 287.628 433.632 287.628 433.04C287.628 422.672 288.368 417.488 289.85 417.488C298.736 416.896 309.549 415.118 322.286 412.156C335.024 408.898 349.983 405.639 367.164 402.381L376.051 400.159C377.532 400.159 379.013 401.196 380.494 403.27C382.271 405.047 383.012 406.528 382.716 407.713L380.938 421.487C380.938 422.968 381.087 423.857 381.383 424.153C381.975 424.153 383.012 423.413 384.493 421.932C400.785 406.528 421.373 398.826 446.256 398.826C467.584 398.826 483.284 409.046 493.355 429.485C511.721 409.342 538.382 399.122 573.336 398.826C590.517 398.826 604.439 406.084 615.104 420.599C626.064 435.114 631.544 457.182 631.544 486.805V530.794C631.544 550.345 632.581 563.823 634.654 571.229C635.247 572.413 637.32 573.895 640.875 575.672C644.726 577.449 648.725 579.078 652.872 580.56C657.019 581.744 659.981 582.337 661.759 582.337C662.351 582.337 662.796 583.522 663.092 585.892C663.388 588.261 663.536 590.779 663.536 593.445C663.536 596.111 663.24 597.889 662.647 598.777C660.87 598.777 657.464 598.481 652.428 597.889C647.392 597.592 641.616 597.296 635.099 597C628.878 596.408 622.805 595.963 616.881 595.667C610.956 595.371 606.217 595.223 602.662 595.223C597.923 595.223 591.257 595.519 582.667 596.111C574.076 596.704 565.782 597.148 557.784 597.444C550.082 598.037 545.047 598.481 542.677 598.777C541.492 597.592 540.899 594.482 540.899 589.446C540.899 584.707 541.492 582.337 542.677 582.337C545.047 582.337 548.305 581.744 552.452 580.56C556.896 579.078 560.895 577.449 564.449 575.672C568.3 573.895 570.374 572.413 570.67 571.229C572.743 562.934 573.78 551.678 573.78 537.459V497.469C573.78 477.029 570.67 461.774 564.449 451.702C558.525 441.631 548.897 436.595 535.567 436.595C527.273 436.595 520.312 438.076 514.684 441.038C509.055 444 505.353 449.332 503.575 457.034C503.575 459.7 503.723 463.255 504.02 467.698C504.316 471.845 504.464 478.214 504.464 486.805V530.794C504.464 550.345 505.501 563.823 507.574 571.229C508.167 572.413 510.24 573.895 513.795 575.672C517.646 577.449 521.645 579.078 525.792 580.56C529.939 581.744 532.901 582.337 534.679 582.337C535.271 582.337 535.715 583.522 536.012 585.892C536.308 588.261 536.456 590.779 536.456 593.445C536.456 596.111 536.16 597.889 535.567 598.777C533.79 598.777 530.383 598.481 525.348 597.889C520.312 597.592 514.535 597.296 508.019 597C501.798 596.408 495.725 595.963 489.801 595.667C483.876 595.371 479.137 595.223 475.582 595.223C470.842 595.223 464.177 595.519 455.587 596.111C446.996 596.704 438.702 597.148 430.704 597.444C423.002 598.037 417.966 598.481 415.597 598.777C414.412 597.592 413.819 594.482 413.819 589.446C413.819 584.707 414.412 582.337 415.597 582.337C417.966 582.337 421.225 581.744 425.372 580.56C429.815 579.078 433.814 577.449 437.369 575.672C441.22 573.895 443.294 572.413 443.59 571.229C445.663 562.934 446.7 551.678 446.7 537.459V497.469C446.7 475.548 443.59 459.996 437.369 450.813C431.445 441.334 421.817 436.595 408.487 436.595C399.304 436.595 391.899 438.372 386.271 441.927C380.642 445.185 377.828 449.925 377.828 456.146V530.794C377.828 550.345 378.865 563.823 380.938 571.229C381.531 572.413 383.604 573.895 387.159 575.672C390.714 577.449 394.565 579.078 398.712 580.56C402.859 581.744 405.673 582.337 407.154 582.337C407.747 582.337 408.191 583.522 408.487 585.892C408.784 588.261 408.932 590.779 408.932 593.445C408.932 596.111 408.635 597.889 408.043 598.777C405.673 598.481 400.637 598.037 392.936 597.444C385.234 597.148 377.088 596.704 368.497 596.111C360.203 595.519 353.686 595.223 348.946 595.223C345.392 595.223 340.504 595.371 334.283 595.667C328.359 595.963 322.138 596.408 315.621 597C309.104 597.296 303.328 597.592 298.292 597.889C293.256 598.481 289.85 598.777 288.072 598.777ZM759.068 693.865C744.257 693.865 730.779 691.792 718.634 687.645C706.489 683.794 696.861 678.165 689.752 670.76C682.643 663.354 679.088 654.764 679.088 644.988C679.088 638.471 682.494 631.51 689.308 624.104C696.417 616.699 705.156 611.367 715.523 608.108C707.822 604.85 700.86 599.666 694.64 592.557C688.419 585.151 685.309 577.153 685.309 568.562C685.309 561.157 688.567 554.788 695.084 549.456C701.897 544.124 709.895 538.94 719.078 533.904C713.45 530.646 707.97 525.758 702.638 519.241C697.306 512.724 693.01 505.319 689.752 497.024C686.493 488.434 684.864 479.992 684.864 471.697C684.864 455.405 688.567 441.779 695.973 430.818C703.378 419.858 713.302 411.564 725.743 405.936C738.481 400.307 752.551 397.493 767.955 397.493C778.915 397.493 791.505 399.419 805.724 403.27C812.833 405.343 819.202 406.824 824.83 407.713C830.755 408.602 835.79 409.046 839.938 409.046H864.376C864.968 409.046 865.857 410.379 867.042 413.045C868.523 415.711 869.856 418.525 871.041 421.487C872.226 424.153 872.818 426.227 872.818 427.708C872.818 431.855 871.93 433.929 870.152 433.929H843.937C842.752 434.225 842.159 434.669 842.159 435.262L845.714 447.259C846.603 451.11 847.343 454.961 847.936 458.812C848.528 462.662 848.824 466.217 848.824 469.476C848.824 481.917 845.27 493.766 838.16 505.022C831.347 516.279 822.016 525.61 810.167 533.016C798.318 540.125 784.692 543.68 769.288 543.68C763.364 543.68 757.883 543.532 752.848 543.235C747.812 542.643 743.22 542.05 739.073 541.458C735.222 542.643 732.408 544.716 730.631 547.679C729.15 550.641 728.409 553.011 728.409 554.788C728.409 557.454 730.927 559.528 735.963 561.009C740.11 562.194 746.331 563.23 754.625 564.119C762.919 565.008 771.214 565.6 779.508 565.896C787.802 566.193 794.171 566.341 798.614 566.341C845.714 568.414 869.56 583.966 870.152 612.996C870.152 623.956 866.894 634.324 860.377 644.1C854.156 653.875 845.566 662.465 834.605 669.871C823.941 677.277 811.944 683.053 798.614 687.2C785.58 691.644 772.398 693.865 759.068 693.865ZM767.511 520.574C778.767 520.574 785.58 516.427 787.95 508.133C790.32 499.839 791.505 489.767 791.505 477.918C791.505 458.96 789.728 444.741 786.173 435.262C782.618 425.783 775.509 421.043 764.845 421.043C757.735 421.043 752.551 423.117 749.293 427.264C746.035 431.411 743.961 436.743 743.072 443.26C742.48 449.777 742.184 456.738 742.184 464.144V466.365C742.184 475.844 742.776 484.731 743.961 493.025C745.146 501.32 747.516 507.985 751.07 513.021C754.625 518.056 760.105 520.574 767.511 520.574ZM766.622 666.761C782.026 666.761 794.467 663.947 803.946 658.318C813.722 652.69 818.609 644.248 818.609 632.991C818.609 619.661 793.727 612.996 743.961 612.996C736.555 615.07 730.927 617.588 727.076 620.55C723.225 623.512 721.3 628.4 721.3 635.213C721.3 644.1 725.891 651.505 735.074 657.43C744.553 663.65 755.069 666.761 766.622 666.761Z" fill="#0C3D26"/>
</svg>
